<?xml version="1.0" encoding="utf-8" ?>
<svg xmlns="http://www.w3.org/2000/svg" xmlns:xlink="http://www.w3.org/1999/xlink" width="60" height="60">
	<path fill="#FF8E28" transform="matrix(0.117188 0 0 0.117188 3.8147e-06 0)" d="M256.002 271.328C254.626 266.609 252.081 262.066 249.959 257.64L189.38 131.952C186.331 125.746 182.816 119.695 180.2 113.289C173.386 96.6026 182.616 78.325 201.123 77.3552C204.022 77.2741 206.995 77.1585 209.884 77.4452C214.222 82.205 217.942 87.5448 222.158 92.4256L244.936 118.805C248.615 123.055 252.401 127.223 256.001 131.54C257.423 129.403 259.247 127.42 260.907 125.463L284.805 97.6151C290.625 90.9317 296.516 84.3376 302.156 77.4996C321.735 74.6679 338.601 88.6934 333.287 108.984C331.854 114.457 328.909 119.4 326.461 124.46C314.771 148.622 302.72 172.596 291.29 196.887L268.014 246.037C264.028 254.478 259.739 262.771 256.002 271.328Z"/>
	<path fill="#FF8E28" transform="matrix(0.117188 0 0 0.117188 3.8147e-06 0)" d="M358.272 215.745C362.104 213.364 366.049 211.165 369.921 208.851L388.753 197.534C395.489 193.54 402.984 187.325 410.946 186.126C423.8 184.188 435.283 192.609 437.099 205.5C438.884 218.17 434.762 224.099 427.647 233.38L295.754 409.286C289.107 418.015 284.675 424.062 274.23 428.776C259.61 435.374 242.497 433.787 229.598 423.933C222.672 418.643 217.894 410.819 212.669 403.934L87.7918 237.548C82.1258 230.18 75.7613 223.04 74.5287 213.44C72.7826 199.844 80.807 187.624 94.8315 185.898C105.365 184.278 118.073 194.585 126.66 199.609L189.629 236.994C201.168 243.905 253.612 274.067 254.333 276.338C253.287 277.174 234.181 276.284 230.147 276.283L180.876 276.297C178.332 276.3 175.759 276.392 173.224 276.159C176.449 279.822 179.075 284.265 181.854 288.275L255.966 398.646C257.822 395.515 259.919 392.5 261.916 389.457L319.74 303.386C325.97 294.216 332.182 284.962 339.01 276.223C327.238 277.131 311.796 276.145 299.581 276.31L272.175 276.773C268.222 276.849 262.585 277.352 258.779 276.907C254.549 276.412 274.067 266.199 274.822 265.762L321.431 237.94C333.721 230.579 346.124 223.336 358.272 215.745Z"/>
</svg>
